<svg width="515" height="538" viewBox="0 0 515 538" fill="none" xmlns="http://www.w3.org/2000/svg">
<path d="M84.3797 5.66686C84.3797 5.66686 56.3795 13.6667 45.3797 27.6668C34.3799 41.667 101.88 154.167 101.88 148.667C101.88 143.167 168.713 131 196.38 129.167C170.713 88.0002 124.879 11.6667 113.38 5.66686C101.88 -0.333021 84.3797 5.66686 84.3797 5.66686Z" stroke="#FAFAF0" stroke-width="6"/>
<path d="M8.87994 209.666C19.2799 186.066 62.735 166.451 103.5 149.5C141 133.907 255.781 128.5 276 128.5C296.22 128.5 390.5 131.089 433.38 154.166C466.734 172.117 500.38 194.466 508.38 215.666C518.38 242.166 501.983 321.5 498.38 338.166C493.335 361.5 435.834 450.167 405 482C399.5 485.5 398.687 494.167 397.38 505.666C396.073 517.166 301.88 534.667 257.38 534.667C226.208 534.667 130.88 522.588 122.88 505.666C119.026 497.516 118.68 487.266 115.88 483.666C88.3799 478.667 36.6281 403.539 16.88 338.166C2.32448 289.983 -1.52006 233.266 8.87994 209.666Z" stroke="#FAFAF0" stroke-width="6"/>
<path d="M179 291.495C171 279.109 130.5 199.609 130.5 195.5C130.5 191.391 229.5 182 229.5 182C256 216.682 337 291.495 337 291.495C337 291.495 187 303.882 179 291.495Z" stroke="#FAFAF0" stroke-width="6"/>
</svg>
